HIERARCHY
ROOT Hips
{
 OFFSET 0.000000 0.000000 0.000000
 CHANNELS 6 Xposition Yposition Zposition Yrotation Xrotation Zrotation
 JOINT Chest
 {
  OFFSET 0.000000 9.585900 0.002600
  CHANNELS 3 Yrotation Xrotation Zrotation
  JOINT Chest2
  {
   OFFSET 0.000000 9.601200 -0.005300
   CHANNELS 3 Yrotation Xrotation Zrotation
   JOINT Chest3
   {
    OFFSET 0.000000 9.561800 0.000000
    CHANNELS 3 Yrotation Xrotation Zrotation
    JOINT Chest4
    {
     OFFSET 0.000000 9.552100 0.000000
     CHANNELS 3 Yrotation Xrotation Zrotation
     JOINT Neck
     {
      OFFSET 0.000000 14.453000 0.000000
      CHANNELS 3 Yrotation Xrotation Zrotation
      JOINT Head
      {
       OFFSET 0.000000 8.936500 -0.011300
       CHANNELS 3 Yrotation Xrotation Zrotation
       End Site
       {
        OFFSET 0.000000 17.073600 -0.006000
       }
      }
     }
     JOINT RightCollar
     {
      OFFSET -2.921100 9.558500 0.000000
      CHANNELS 3 Yrotation Xrotation Zrotation
      JOINT RightShoulder
      {
       OFFSET -13.519700 0.000000 0.000000
       CHANNELS 3 Yrotation Xrotation Zrotation
       JOINT RightElbow
       {
        OFFSET 0.000000 -29.696600 0.000000
        CHANNELS 3 Yrotation Xrotation Zrotation
        JOINT RightWrist
        {
         OFFSET 0.000000 -24.004700 0.000000
         CHANNELS 3 Yrotation Xrotation Zrotation
         End Site
         {
          OFFSET 0.000000 -17.728500 0.000000
         }
        }
       }
      }
     }
     JOINT LeftCollar
     {
      OFFSET 2.921100 9.558500 0.000000
      CHANNELS 3 Yrotation Xrotation Zrotation
      JOINT LeftShoulder
      {
       OFFSET 13.519700 0.000000 0.000000
       CHANNELS 3 Yrotation Xrotation Zrotation
       JOINT LeftElbow
       {
        OFFSET 0.000000 -29.696600 0.000000
        CHANNELS 3 Yrotation Xrotation Zrotation
        JOINT LeftWrist
        {
         OFFSET 0.000000 -24.004700 0.000000
         CHANNELS 3 Yrotation Xrotation Zrotation
         End Site
         {
          OFFSET 0.000000 -17.728500 0.000000
         }
        }
       }
      }
     }
    }
   }
  }
 }
 JOINT RightHip
 {
  OFFSET -7.771700 -0.012900 -0.001300
  CHANNELS 3 Yrotation Xrotation Zrotation
  JOINT RightKnee
  {
   OFFSET 0.000000 -40.869800 0.001200
   CHANNELS 3 Yrotation Xrotation Zrotation
   JOINT RightAnkle
   {
    OFFSET 0.000000 -39.717900 0.002100
    CHANNELS 3 Yrotation Xrotation Zrotation
    JOINT RightToe
    {
     OFFSET 0.000000 -4.965400 11.033500
     CHANNELS 3 Yrotation Xrotation Zrotation
     End Site
     {
      OFFSET 0.000000 -1.423100 5.872300
     }
    }
   }
  }
 }
 JOINT LeftHip
 {
  OFFSET 7.771700 -0.012900 -0.001300
  CHANNELS 3 Yrotation Xrotation Zrotation
  JOINT LeftKnee
  {
   OFFSET 0.000000 -40.869800 0.001200
   CHANNELS 3 Yrotation Xrotation Zrotation
   JOINT LeftAnkle
   {
    OFFSET 0.000000 -39.717900 0.002100
    CHANNELS 3 Yrotation Xrotation Zrotation
    JOINT LeftToe
    {
     OFFSET 0.000000 -4.965400 11.033500
     CHANNELS 3 Yrotation Xrotation Zrotation
     End Site
     {
      OFFSET 0.000000 -1.423100 5.872300
     }
    }
   }
  }
 }
}
MOTION
Frames: 7
Frame Time: 0.008333
-3.172742 55.179923 23.317168 178.888037 -17.650287 -1.656235 0.656267 16.505630 0.599836 0.066192 1.674609 0.075859 0.111995 2.798511 0.127833 0.666122 14.602003 0.741620 1.306687 11.644176 1.600153 1.007527 -13.406717 1.382038 1.919826 0.690724 2.295713 0.449943 -7.287325 -8.525841 -81.247899 -61.429756 111.139690 -12.342129 -0.000073 0.118527 -5.871039 -2.020304 1.496215 1.672200 -9.337768 8.063550 53.915433 -58.255873 -94.868619 5.241459 -5.395719 5.331026 0.862455 -57.541382 13.203467 -98.870314 86.645907 -102.301337 -11.542992 -22.388720 15.987950 0.058538 -0.144277 0.030340 11.713940 -54.193892 -4.634824 111.389364 76.497062 109.162058 -8.165617 -23.776600 1.476626 0.084532 0.243046 0.041101
-3.174121 55.180683 23.317032 178.885755 -17.652810 -1.658053 0.660205 16.515644 0.600288 0.065667 1.672412 0.076471 0.112325 2.800458 0.127881 0.668954 14.612103 0.741427 1.306969 11.634427 1.604141 1.015438 -13.372297 1.400144 1.916633 0.688157 2.301600 0.452810 -7.302078 -8.530389 -81.216854 -61.439356 111.123745 -12.350503 -0.029315 0.107321 -5.865762 -2.012532 1.491749 1.655277 -9.356960 8.073988 53.891861 -58.232226 -94.869547 5.221503 -5.422871 5.344660 0.854190 -57.537453 13.212526 -98.860606 86.645635 -102.290947 -11.617231 -22.384058 16.007247 0.020478 -0.140023 0.028456 11.715529 -54.191301 -4.628934 111.376834 76.493931 109.152040 -8.176965 -23.775880 1.472319 0.091709 0.243073 0.045660
-3.178666 55.181418 23.317168 178.882981 -17.653772 -1.640212 0.661218 16.523905 0.583386 0.062547 1.669887 0.075597 0.112834 2.802404 0.127930 0.669972 14.611028 0.742042 1.314971 11.661491 1.614012 1.016095 -13.360325 1.415303 1.917325 0.700311 2.305375 0.463971 -7.320747 -8.541518 -81.187910 -61.436794 111.101765 -12.371737 -0.070215 0.102340 -5.862712 -1.995220 1.485939 1.647467 -9.376507 8.080348 53.888932 -58.228091 -94.873661 5.229799 -5.429155 5.338745 0.874438 -57.534459 13.203857 -98.764247 86.629832 -102.178678 -11.830386 -22.379700 16.061684 0.031175 -0.112239 0.022532 11.740142 -54.186330 -4.654956 111.349646 76.485958 109.121380 -8.190005 -23.766507 1.473369 0.096351 0.237321 0.047522
-3.181990 55.182639 23.316393 178.889658 -17.660950 -1.632017 0.656772 16.539513 0.574330 0.061644 1.671180 0.075080 0.113012 2.806759 0.127862 0.670654 14.621036 0.740739 1.326822 11.706526 1.642205 1.012851 -13.383592 1.416933 1.920149 0.692469 2.307044 0.482232 -7.332139 -8.554061 -81.181794 -61.427243 111.092269 -12.375554 -0.093476 0.093878 -5.867347 -2.003303 1.486593 1.645173 -9.389113 8.083455 53.886230 -58.225609 -94.875705 5.266403 -5.442726 5.313535 0.874993 -57.522401 13.200655 -98.694711 86.620822 -102.099780 -11.953531 -22.385593 16.097283 0.011491 -0.098669 0.011072 11.749705 -54.176876 -4.670874 111.341017 76.485838 109.113885 -8.196712 -23.759303 1.472511 0.100940 0.231921 0.050863
-3.180515 55.183670 23.316972 178.893707 -17.660965 -1.651835 0.660984 16.546216 0.593496 0.065503 1.675082 0.078037 0.115052 2.825034 0.125589 0.666728 14.615959 0.743714 1.325563 11.699865 1.647119 1.013214 -13.377851 1.423596 1.920444 0.685950 2.304239 0.482669 -7.348577 -8.555418 -81.162938 -61.425761 111.084692 -12.374458 -0.107082 0.086125 -5.871769 -2.022491 1.486027 1.649897 -9.381991 8.082369 53.862627 -58.205686 -94.886698 5.255825 -5.465737 5.324124 0.832642 -57.516880 13.219862 -98.711177 86.639302 -102.134883 -11.775575 -22.407993 16.063572 0.046441 -0.111599 0.007839 11.718867 -54.181847 -4.638208 111.336567 76.483449 109.107968 -8.188630 -23.761370 1.467329 0.090622 0.236089 0.050718
-3.178601 55.184793 23.317459 178.893080 -17.662052 -1.673344 0.668483 16.549425 0.615559 0.069719 1.688820 0.075054 0.114585 2.821840 0.127586 0.665305 14.645635 0.742090 1.326710 11.674466 1.656478 1.013549 -13.371797 1.430484 1.917763 0.659257 2.307736 0.495639 -7.357710 -8.560858 -81.177753 -61.423925 111.093936 -12.389243 -0.106536 0.092310 -5.878803 -2.049664 1.489119 1.652345 -9.364112 8.072774 53.888169 -58.228802 -94.914670 5.254911 -5.471684 5.322980 0.794927 -57.511747 13.239739 -98.732840 86.659503 -102.177236 -11.557721 -22.428721 16.021686 0.085700 -0.127392 0.008377 11.692541 -54.183282 -4.602193 111.323577 76.486681 109.097990 -8.182190 -23.769721 1.461306 0.095025 0.245140 0.051653
-3.179486 55.185851 23.317815 178.902943 -17.663269 -1.682311 0.667767 16.557572 0.621709 0.066353 1.686511 0.076112 0.114586 2.826369 0.127854 0.659410 14.656083 0.742954 1.332658 11.712779 1.678830 1.005965 -13.336987 1.465193 1.919306 0.650475 2.306838 0.509069 -7.355648 -8.561390 -81.166905 -61.422043 111.079678 -12.390734 -0.089921 0.119098 -5.877160 -2.056403 1.484393 1.652742 -9.367713 8.073771 53.888149 -58.228814 -94.915970 5.270761 -5.480606 5.323765 0.770922 -57.508299 13.246580 -98.720017 86.661206 -102.169069 -11.478601 -22.435142 16.007668 0.069651 -0.137037 0.004165 11.680856 -54.183800 -4.596361 111.310347 76.486813 109.088524 -8.183331 -23.768158 1.459970 0.096750 0.245886 0.051187
